# xmcd CD database file
#
# Track frame offsets:
#	182
#	14582
#	28082
#	43832
#	58457
#	73757
#	86067
#	98582
#	112015
#	123420
#	135332
#	151232
#
# Disc length: 2169 seconds
#
# Revision: 2
# Processed by: cddbd v1.4b41PL1 Copyright (c) Steve Scherf et al.
# Submitted via: Feurio! 1.52 - http://www.feurio.com
#
DISCID=a708770c
DTITLE=Marek and Vacek - Unbekannte CD #A708770C69F44ED9
DYEAR=1900
DGENRE=
TTITLE0=Allegretto von Beethoven
TTITLE1=Rhapsody (Liszt)
TTITLE2=Lullaby
TTITLE3=Nachtigall
TTITLE4=Präludium v. Chopin
TTITLE5=Tarantella v. Rossini
TTITLE6=Capriccio v. Paganini
TTITLE7=Spinnrad v. Moniuszko
TTITLE8=Pretty Laura
TTITLE9=Happy Days
TTITLE10=The Sun is dead
TTITLE11=Maple Leaf Rag (Joplin)
EXTD=
EXTT0=
EXTT1=
EXTT2=
EXTT3=
EXTT4=
EXTT5=
EXTT6=
EXTT7=
EXTT8=
EXTT9=
EXTT10=
EXTT11=
PLAYORDER=
